# xmcd
#
# Track frame offsets:
#	150
#	11925
#	24024
#	40647
#	52335
#	65831
#	77485
#	92601
#	107073
#	124849
#
# Disc length: 1761 seconds
#
# Revision: 2
# Processed by: cddbd v1.5.2PL0 Copyright (c) Steve Scherf et al.
# Submitted via: audiograbber 1.83.01
#
DISCID=7c06df0a
DTITLE=B.W. Stevenson - My Maria
DYEAR=1973
DGENRE=Country
TTITLE0=My Maria
TTITLE1=Be My Woman Tonight
TTITLE2=Sunset Woman
TTITLE3=A Good Love Is Like A Good Song
TTITLE4=Grab On Hold Of My Soul
TTITLE5=Shambala
TTITLE6=Lucky Touch
TTITLE7=I Got To Boogie
TTITLE8=Remember Me
TTITLE9=Pass This Way
EXTD=
EXTT0=
EXTT1=
EXTT2=
EXTT3=
EXTT4=
EXTT5=
EXTT6=
EXTT7=
EXTT8=
EXTT9=
PLAYORDER=
